<svg width="708" height="555.86743" xmlns="http://www.w3.org/2000/svg" data-name="Layer 1">

 <g>
  <title>Layer 1</title>
  <path fill="#f0f0f0" d="m644.46523,507.4485a211.72219,211.72219 0 0 1 -46.19649,37.27045c-0.39154,0.24069 -0.7897,0.4667 -1.18925,0.70031l-27.639,-24.46263c0.29035,-0.26957 0.61188,-0.57235 0.95806,-0.90494c20.59391,-19.55497 122.83077,-156.27974 129.64345,-189.57446c-0.47014,2.77384 6.14723,111.55068 -55.57677,176.97127z" data-name="Path 133" id="b10fb2cf-c586-4c5f-9fbf-e678f5ffa3db-227"/>
  <path fill="#f0f0f0" d="m603.6017,549.43902c-0.52265,0.12466 -1.0544,0.24137 -1.58764,0.34772l-20.7355,-18.35251c0.40524,-0.14119 0.87883,-0.30927 1.42046,-0.49568c8.89662,-3.15026 35.39436,-12.66026 61.76413,-23.49189c28.33447,-11.64369 56.53311,-24.79986 62.59765,-33.227c-1.30094,1.95806 -41.37434,61.3363 -103.4591,75.21936z" data-name="Path 134" id="a32c10c7-75df-4179-a648-6a8d2a687209-228"/>
  <path id="svg_1" fill="#3f3d56" d="m644.08181,145.58011l-2.95289,0l0,-80.89361a46.819,46.819 0 0 0 -46.819,-46.81906l-171.38413,0a46.819,46.819 0 0 0 -46.81911,46.81891l0,443.7888a46.819,46.819 0 0 0 46.819,46.81906l171.38404,0a46.819,46.819 0 0 0 46.81915,-46.81888l0,-305.31376l2.95294,0l0,-57.58146z"/>
  <path id="svg_2" fill="#fff" d="m631.1627,65.00811l0,443.14277a34.95659,34.95659 0 0 1 -34.9693,34.95674l-172.20914,0a34.95435,34.95435 0 0 1 -34.957,-34.95674l0,-443.14277a34.95435,34.95435 0 0 1 34.957,-34.95674l20.89839,0a16.61888,16.61888 0 0 0 15.38341,22.87963l98.18146,0a16.60126,16.60126 0 0 0 15.384,-22.87963l22.36188,0a34.95659,34.95659 0 0 1 34.9693,34.95674z"/>
  <path id="svg_3" fill="#f0f0f0" d="m577.59459,295.28882l-151.3667,0a10.0113,10.0113 0 0 1 -10,-10l0,-4.97754a10.0113,10.0113 0 0 1 10,-10l151.3667,0a10.0113,10.0113 0 0 1 10,10l0,4.97754a10.0113,10.0113 0 0 1 -10,10z"/>
  <path id="svg_4" fill="#f0f0f0" d="m577.59459,338.19605l-151.3667,0a10.0113,10.0113 0 0 1 -10,-10l0,-4.97754a10.0113,10.0113 0 0 1 10,-10l151.3667,0a10.0113,10.0113 0 0 1 10,10l0,4.97754a10.0113,10.0113 0 0 1 -10,10z"/>
  <path id="svg_5" fill="#3f3d56" d="m585.16637,285.69263l-151.3667,0a10.512,10.512 0 0 1 -10.5,-10.5l0,-4.97754a10.512,10.512 0 0 1 10.5,-10.5l151.3667,0a10.512,10.512 0 0 1 10.5,10.5l0,4.97754a10.512,10.512 0 0 1 -10.5,10.5zm-151.3667,-23.97754a8.50951,8.50951 0 0 0 -8.5,8.5l0,4.97754a8.50951,8.50951 0 0 0 8.5,8.5l151.3667,0a8.50951,8.50951 0 0 0 8.5,-8.5l0,-4.97754a8.50951,8.50951 0 0 0 -8.5,-8.5l-151.3667,0z"/>
  <path id="svg_6" fill="#3f3d56" d="m585.16637,328.59986l-151.3667,0a10.512,10.512 0 0 1 -10.5,-10.5l0,-4.97754a10.512,10.512 0 0 1 10.5,-10.5l151.3667,0a10.512,10.512 0 0 1 10.5,10.5l0,4.97754a10.512,10.512 0 0 1 -10.5,10.5zm-151.3667,-23.97754a8.50951,8.50951 0 0 0 -8.5,8.5l0,4.97754a8.50951,8.50951 0 0 0 8.5,8.5l151.3667,0a8.50951,8.50951 0 0 0 8.5,-8.5l0,-4.97754a8.50951,8.50951 0 0 0 -8.5,-8.5l-151.3667,0z"/>
  <path id="svg_7" fill="#f0f0f0" d="m631.1627,65.00811l0,96.38971a103.53895,103.53895 0 0 1 -129.88243,-100.07465q0,-4.24023 0.34076,-8.39217l56.82649,0a16.60126,16.60126 0 0 0 15.384,-22.87963l22.36188,0a34.95659,34.95659 0 0 1 34.9693,34.95674z"/>
  <path id="svg_8" fill="#f2b715" d="m476.04076,537.08797c0,2.03176 -0.0758,4.03834 -0.23971,6.01965l-51.81679,0a34.95435,34.95435 0 0 1 -34.957,-34.95674l0,-47.3998a77.07339,77.07339 0 0 1 87.01347,76.33689l0.00003,0z"/>
  <path id="svg_9" fill="#f2b715" d="m58.12133,453.91872a6.00681,6.00681 0 0 0 7.911,-3.0669l46.67932,-105.79394a13.3793,13.3793 0 0 0 -17.0774,-17.876l-0.00012,0a13.19944,13.19944 0 0 0 -6.75012,5.78027a13.64886,13.64886 0 0 0 -0.65442,1.293l-46.67932,105.794a5.99964,5.99964 0 0 0 3.06738,7.91162l13.50368,5.95795z"/>
  <path id="svg_10" fill="#2f2e41" d="m110.79528,388.49097l-46.17176,-10.26074l11.428,-30.23193a31.94972,31.94972 0 0 1 34.299,-23.62793l0.44483,0.04931l-0.00007,64.07129z"/>
  <path id="svg_11" fill="#f2b715" d="m203.055,456.43189a7.02814,7.02814 0 0 1 -6.41186,-4.17676l-46.67914,-105.79394a14.38052,14.38052 0 0 1 25.60937,-12.99707l0,-0.00049a14.61775,14.61775 0 0 1 0.70264,1.38818l46.6792,105.794a7.00007,7.00007 0 0 1 -3.57862,9.23l-13.96142,6.15966l-0.00708,-0.01562a6.94406,6.94406 0 0 1 -2.35309,0.41204z"/>
  <path id="svg_12" fill="#f2b715" d="m139.48546,419.10279a6.00671,6.00671 0 0 0 -6,6l0,123.01416a6.00672,6.00672 0 0 0 6,6l14.75954,0a6.00672,6.00672 0 0 0 6,-6l0,-123.01416a6.00671,6.00671 0 0 0 -6,-6l-14.75954,0z"/>
  <path id="svg_13" fill="#f2b715" d="m110.29308,419.10279a6.00671,6.00671 0 0 0 -6,6l0,123.01416a6.00672,6.00672 0 0 0 6,6l14.75976,0a6.00672,6.00672 0 0 0 6,-6l0,-123.01416a6.00671,6.00671 0 0 0 -6,-6l-14.75976,0z"/>
  <circle id="svg_14" fill="#f2b715" r="51" cy="239.22404" cx="131.82814"/>
  <path id="svg_15" fill="#2f2e41" d="m148.79994,260.63298c3.30591,-0.09179 7.42029,-0.20654 10.59,-2.522a8.13272,8.13272 0 0 0 3.20008,-6.07275a5.47082,5.47082 0 0 0 -1.86036,-4.49315c-1.65551,-1.39894 -4.073,-1.72707 -6.67822,-0.96144l2.69922,-19.72559l-1.98144,-0.27148l-3.17322,23.18997l1.65466,-0.75928c1.91834,-0.87988 4.55164,-1.32764 6.188,0.05518a3.51513,3.51513 0 0 1 1.15271,2.8955a6.14689,6.14689 0 0 1 -2.38123,4.52784c-2.46667,1.80175 -5.74621,2.03418 -9.46582,2.13818l0.05562,1.99902z"/>
  <rect id="svg_16" fill="#2f2e41" height="2" width="10.77161" y="228.55925" x="166.54982"/>
  <rect id="svg_17" fill="#2f2e41" height="2" width="10.77161" y="228.55925" x="132.54982"/>
  <path id="svg_18" fill="#2f2e41" d="m182.36168,456.0531l-18.356,-134a6.00013,6.00013 0 0 0 -5.94482,-5.18566l-13.85543,0a6.02466,6.02466 0 0 0 0.08985,-1l0,-5a6.00015,6.00015 0 0 0 -6,-6l-12,0a6.00014,6.00014 0 0 0 -6,6l0,5a6.02466,6.02466 0 0 0 0.08984,1l-13.85547,0a6.00049,6.00049 0 0 0 -5.94482,5.18566l-18.356,134a6,6 0 0 0 5.94434,6.81434l88.24414,0a6,6 0 0 0 5.94437,-6.81434z"/>
  <path id="svg_19" fill="#2f2e41" d="m153.79528,388.49097l0,-64.07125l0.44482,-0.04931a31.96115,31.96115 0 0 1 34.31543,23.68017l11.41138,30.17969l-46.17163,10.2607z"/>
  <path id="svg_20" fill="#2f2e41" d="m129.25992,291.81551l-35.27546,-13.69192c-5.76827,-2.23892 -11.56878,-4.40968 -17.30651,-6.72569a19.72637,19.72637 0 0 1 -6.66153,-3.92617a13.09008,13.09008 0 0 1 -3.32111,-6.42695c-1.22347,-5.17132 -1.00226,-10.82516 -0.915,-16.10249a122.69927,122.69927 0 0 1 1.42174,-17.24065a83.28557,83.28557 0 0 1 10.65027,-30.38043c9.89272,-16.23155 26.93718,-28.44363 46.5429,-27.469c9.07668,0.4512 18.20557,3.70824 24.94937,9.914a15.75138,15.75138 0 0 0 2.35507,2.28248a3.26776,3.26776 0 0 0 1.87567,0.12592q1.23442,-0.07942 2.47088,-0.12124a51.04308,51.04308 0 0 1 8.56551,0.35928a27.12111,27.12111 0 0 1 14.13035,5.86736c3.37014,2.89908 6.11233,6.99171 6.39451,11.53986a13.65989,13.65989 0 0 1 -4.6143,11.15057c-4.20852,3.54694 -10.2131,2.30024 -15.26138,2.03278l-18.49376,-0.97979l-9.37018,-0.49642c-1.92935,-0.10222 -1.92373,2.89808 0,3l24.90494,1.31945c4.00221,0.212 8.127,0.73168 12.13244,0.49169a13.57368,13.57368 0 0 0 8.33317,-3.35238a16.62754,16.62754 0 0 0 5.03664,-15.60115c-1.284,-6.13755 -5.85183,-11.21468 -11.20665,-14.23511c-7.28613,-4.1098 -15.988,-4.50357 -24.14076,-3.896l1.06066,0.43934c-9.22224,-9.89816 -23.34855,-14.07733 -36.61026,-12.61482c-14.00229,1.54417 -26.45612,9.35584 -35.40409,20.03753c-9.97644,11.90941 -15.413,26.75957 -17.52653,42.02983a139.839,139.839 0 0 0 -1.082,24.87973a31.35039,31.35039 0 0 0 1.85228,10.75107a15.39035,15.39035 0 0 0 7.22512,7.74612a103.39756,103.39756 0 0 0 11.46784,4.71084l12.99624,5.04437l25.52829,9.90863l6.49811,2.5222c1.80087,0.699 2.581,-2.2006 0.79752,-2.89284z"/>
  <path id="svg_21" fill="#2f2e41" d="m73.79528,189.86744a15.5,15.5 0 1 1 15.5,-15.5a15.51744,15.51744 0 0 1 -15.5,15.5zm0,-28a12.5,12.5 0 1 0 12.5,12.5a12.51408,12.51408 0 0 0 -12.5,-12.5z"/>
  <rect id="svg_22" transform="rotate(37.4098 147.614 -410.755)" fill="#f0f0f0" height="42.23651" width="42.23651" y="30.06073" x="675.79109"/>
  <path id="svg_23" fill="#f0f0f0" d="m143.29528,56.86744a33.94883,33.94883 0 0 1 27.27734,13.70214l19.58984,-25.6137l-58.77881,-44.95588l-44.95556,58.779l25.33349,19.37585a34.003,34.003 0 0 1 31.5337,-21.28741z"/>
  <path id="svg_24" fill="#3f3d56" d="m707,555.86744l-706,0a1,1 0 0 1 0,-2l706,0a1,1 0 0 1 0,2z"/>
  <path id="svg_25" fill="#f2b715" d="m534.68737,389.93677l-71.86207,0a10.0113,10.0113 0 0 1 -10,-10l0,-4.97754a10.0113,10.0113 0 0 1 10,-10l71.86207,0a10.0113,10.0113 0 0 1 10,10l0,4.97754a10.0113,10.0113 0 0 1 -10,10z"/>
  <path id="svg_26" fill="#3f3d56" d="m542.25939,380.34107l-71.86231,0a10.512,10.512 0 0 1 -10.5,-10.5l0,-4.97754a10.512,10.512 0 0 1 10.5,-10.5l71.86231,0a10.512,10.512 0 0 1 10.5,10.5l0,4.97754a10.512,10.512 0 0 1 -10.5,10.5zm-71.86231,-23.97754a8.50951,8.50951 0 0 0 -8.5,8.5l0,4.97754a8.50951,8.50951 0 0 0 8.5,8.5l71.86231,0a8.50951,8.50951 0 0 0 8.5,-8.5l0,-4.97754a8.50951,8.50951 0 0 0 -8.5,-8.5l-71.86231,0z"/>
 </g>
</svg>